Coordinates
version=1
nRows=13
nColumns=40
inDegrees=yes

Units are S.I. units (second, meters, Newtons, ...)
Angles are in degrees.

endheader
time	pelvis_tilt	pelvis_list	pelvis_rotation	pelvis_tx	pelvis_ty	pelvis_tz	hip_flexion_r	hip_adduction_r	hip_rotation_r	knee_angle_r	knee_angle_r_beta	ankle_angle_r	subtalar_angle_r	mtp_angle_r	hip_flexion_l	hip_adduction_l	hip_rotation_l	knee_angle_l	knee_angle_l_beta	ankle_angle_l	subtalar_angle_l	mtp_angle_l	lumbar_extension	lumbar_bending	lumbar_rotation	arm_flex_r	arm_add_r	arm_rot_r	elbow_flex_r	pro_sup_r	wrist_flex_r	wrist_dev_r	arm_flex_l	arm_add_l	arm_rot_l	elbow_flex_l	pro_sup_l	wrist_flex_l	wrist_dev_l
      0.71000000	     -4.50816180	      0.51271766	     -4.30308098	      0.19578667	      0.86373549	     -1.01663778	     -8.98505038	     -3.31504783	     -8.33282797	    -33.84786546	     -0.59075670	    -11.30903179	      0.73822965	     -1.53055875	     36.77885963	      2.63705722	      9.72046857	    -33.68439212	     -0.58790355	     -0.41386161	     13.77051466	      7.31464700	     -0.41620916	     -2.71206972	      6.37122820	     -4.24638196	    -12.31572153	     -4.52580113	     70.05080359	     89.95437384	      0.00000000	      0.00000000	    -14.41088190	      6.71642816	     18.39593754	     31.83478013	     89.95437384	      0.00000000	      0.00000000
      0.72000000	     -4.39709929	      0.78091575	     -4.21943243	      0.21124801	      0.86392397	     -1.01761324	     -8.09213315	     -4.01870223	     -8.31209797	    -36.18109547	     -0.63147924	    -15.98153927	      0.51980110	     -0.81696963	     36.46127982	      2.00394505	      9.06153814	    -35.07173698	     -0.61211728	      0.39519506	     13.97018797	      7.10754807	     -0.25147009	     -3.14580967	      6.05746219	     -4.59648129	    -11.93021194	     -4.62316950	     69.31065196	     89.95437384	      0.00000000	      0.00000000	    -14.15019640	      6.84299696	     18.38130359	     31.22615711	     89.95437384	      0.00000000	      0.00000000
      0.73000000	     -4.32421515	      1.10726552	     -3.98641530	      0.22630407	      0.86424685	     -1.01888569	     -7.00601573	     -4.58851332	     -7.90615753	    -38.75801970	     -0.67645506	    -19.59269250	     -0.26292536	     -0.17424745	     35.95476541	      0.98581716	      7.76731534	    -36.05537134	     -0.62928494	      1.50796053	     14.53447762	      6.96834721	     -0.11210354	     -3.61286912	      5.57078756	     -5.00514549	    -11.53151977	     -4.70567750	     68.66672254	     89.95437384	      0.00000000	      0.00000000	    -13.75231928	      6.92247656	     18.42459752	     30.66866142	     89.95437384	      0.00000000	      0.00000000
      0.74000000	     -4.25659259	      1.42572417	     -3.74700638	      0.24109727	      0.86471286	     -1.02032612	     -5.67825908	     -5.08014428	     -7.26562205	    -41.68163892	     -0.72748184	    -22.71536634	     -1.87166951	      0.61227429	     35.36458121	      0.02798220	      6.77180884	    -37.03139696	     -0.64631980	      2.69954500	     15.87442916	      7.12432082	      0.00082617	     -4.03375910	      5.02641888	     -5.31871888	    -11.13150561	     -4.82911070	     67.82969872	     89.95437384	      0.00000000	      0.00000000	    -13.33379376	      6.98223699	     18.56956221	     30.25127881	     89.95437384	      0.00000000	      0.00000000
      0.75000000	     -3.94157159	      1.56300232	     -3.55257597	      0.25553103	      0.86582030	     -1.02158719	     -4.38880043	     -5.38858136	     -6.62907459	    -44.86493069	     -0.78304076	    -25.43076177	     -2.94060484	      1.22073014	     34.33366189	     -0.57770267	      6.18973146	    -37.73539912	     -0.65860696	      4.07601184	     16.02100318	      7.06142629	     -0.25711620	     -4.24261922	      4.44442785	     -5.53539591	    -10.86019214	     -4.74954398	     66.95150264	     89.95437384	      0.00000000	      0.00000000	    -12.80387859	      7.05329905	     18.51964099	     29.91709191	     89.95437384	      0.00000000	      0.00000000
      0.76000000	     -3.96035360	      1.79127588	     -3.19345625	      0.26939007	      0.86674551	     -1.02290821	     -2.48111887	     -5.64111617	     -6.17472099	    -48.32625174	     -0.84345221	    -27.49406087	     -5.79463860	      2.41719841	     33.62213079	     -1.25534838	      5.75140236	    -38.26001115	     -0.66776317	      4.96759226	     16.37573265	      7.47950517	     -0.19983304	     -4.54760881	      3.67457525	     -5.71976154	    -10.38138185	     -4.90278875	     65.85989886	     89.95437384	      0.00000000	      0.00000000	    -12.30652919	      7.16624721	     18.45265560	     29.74034029	     89.95437384	      0.00000000	      0.00000000
      0.77000000	     -3.65332082	      1.98925360	     -2.90668515	      0.28278545	      0.86829717	     -1.02432487	     -0.84722290	     -5.96378333	     -5.87489036	    -51.62097056	     -0.90095590	    -28.43892052	     -7.41133626	      3.00096541	     32.38376940	     -1.73347466	      5.79598109	    -38.51391568	     -0.67219464	      6.34789440	     16.01402407	      7.39420837	     -0.58724262	     -4.80214440	      2.96642948	     -5.77934213	    -10.17599351	     -4.72835238	     64.71160364	     89.95437384	      0.00000000	      0.00000000	    -11.59584201	      7.30048863	     18.19787012	     29.63270113	     89.95437384	      0.00000000	      0.00000000
      0.78000000	     -3.63013549	      2.36050469	     -2.65209594	      0.29557701	      0.86945262	     -1.02569651	      1.31687160	     -6.48017379	     -5.84089705	    -55.08562099	     -0.96142546	    -28.28805702	    -10.65092340	      3.90708921	     31.37068815	     -2.29020269	      6.09719717	    -38.44605880	     -0.67101031	      7.17231059	     15.72476991	      7.41808084	     -0.71172648	     -5.21572456	      2.25622855	     -5.84353760	     -9.86254726	     -4.70429036	     63.52112608	     89.95437384	      0.00000000	      0.00000000	    -10.99058454	      7.46599231	     17.96190546	     29.88558071	     89.95437384	      0.00000000	      0.00000000
      0.79000000	     -3.63547533	      2.21376642	     -2.27311250	      0.30822231	      0.87078903	     -1.02667591	      3.53762503	     -6.33007876	     -6.02071209	    -58.30892596	     -1.01768274	    -25.96771462	    -12.68674750	     17.58275453	     30.43089124	     -2.30430513	      6.13363758	    -38.45397921	     -0.67114855	      8.07062674	     15.04617613	      9.69579508	     -0.84299158	     -5.06822303	      1.45934253	     -5.88778603	     -9.59019233	     -4.72106287	     62.21691245	     89.95437384	      0.00000000	      0.00000000	    -10.38936892	      7.68137436	     17.45548981	     30.30858152	     89.95437384	      0.00000000	      0.00000000
      0.80000000	     -3.27226641	      2.08531313	     -1.91796497	      0.32121968	      0.87283104	     -1.02770677	      5.08379123	     -6.29589804	     -6.26061771	    -60.79198210	     -1.06102025	    -24.15794128	    -14.10319340	     17.18951755	     28.92115933	     -2.37488672	      6.02639958	    -38.25021081	     -0.66759212	      8.82811344	     14.48008868	      9.36508163	     -1.33016202	     -4.92641387	      0.66879676	     -5.87852239	     -9.36223936	     -4.67420937	     60.75292244	     89.95437384	      0.00000000	      0.00000000	     -9.68169852	      7.87171164	     17.11270100	     30.73484213	     89.95437384	      0.00000000	      0.00000000
      0.81000000	     -3.18519835	      2.04455076	     -1.68982001	      0.33358619	      0.87441789	     -1.02871632	      7.09869324	     -6.31275856	     -6.31945279	    -63.13701988	     -1.10194888	    -21.85546754	    -15.57723226	     16.87898895	     27.73230190	     -2.46822685	      6.12933443	    -37.92692260	     -0.66194967	      9.58564146	     14.14435732	      9.00460206	     -1.55814234	     -4.84077109	     -0.02415220	     -5.88310420	     -9.19088177	     -4.61897518	     59.36130036	     89.95437384	      0.00000000	      0.00000000	     -9.04287787	      8.08529379	     16.56180931	     31.37070038	     89.95437384	      0.00000000	      0.00000000
      0.82000000	     -3.00929811	      1.82559751	     -1.44643335	      0.34619878	      0.87628438	     -1.02928606	      8.90400232	     -6.07044858	     -6.45010537	    -64.98477952	     -1.13419837	    -19.54909065	    -16.45157967	     16.56452460	     26.44166826	     -2.38077756	      5.97698519	    -37.67913337	     -0.65762494	     10.19076293	     13.83538592	      8.66747509	     -1.82743312	     -4.60427526	     -0.62791926	     -5.89339730	     -9.03255346	     -4.55186890	     57.72817549	     89.95437384	      0.00000000	      0.00000000	     -8.33460126	      8.35731421	     16.09036322	     32.01523294	     89.95437384	      0.00000000	      0.00000000
      0.83000000	     -2.87145177	      1.63651537	     -1.21450098	      0.35859609	      0.87801823	     -1.03000489	     10.79989245	     -5.87345352	     -6.54518533	    -66.59585471	     -1.16231693	    -17.03725606	    -16.76662003	     16.04884393	     25.21423749	     -2.28209979	      5.96865769	    -37.42239318	     -0.65314397	     10.80346615	     13.39496193	      8.21420464	     -2.06254146	     -4.35654328	     -1.23176719	     -5.89219737	     -8.94313853	     -4.48233593	     56.13891908	     89.95437384	      0.00000000	      0.00000000	     -7.61585652	      8.61872965	     15.64997693	     32.78146718	     89.95437384	      0.00000000	      0.00000000
